<?xml version="1.0" standalone="no"?>
<!DOCTYPE svg PUBLIC "-//W3C//DTD SVG 1.1//EN" "http://www.w3.org/Graphics/SVG/1.1/DTD/svg11.dtd" >
<svg>
<metadata>
Created by FontForge 20120731 at Tue Oct 16 02:51:20 2018
 By www
(c) 2008 Bernd Montag - feel free to distribute - feel free to use personal and commercial - read attached textfile for restrictions
</metadata>
<defs>
<font id="SansationRegular" horiz-adv-x="485" >
  <font-face 
    font-family="Sansation"
    font-weight="400"
    font-stretch="normal"
    units-per-em="2048"
    panose-1="2 0 0 0 0 0 0 0 0 0"
    ascent="1638"
    descent="-410"
    x-height="1050"
    cap-height="1430"
    bbox="-300 -434 1990 1838"
    underline-thickness="150"
    underline-position="-89"
    unicode-range="U+0020-F002"
  />
<missing-glyph horiz-adv-x="1124" 
d="M0 0v1280h1024v-1280h-1024zM32 32h960v1216h-960v-1216z" />
    <glyph glyph-name=".notdef" horiz-adv-x="1124" 
d="M0 0v1280h1024v-1280h-1024zM32 32h960v1216h-960v-1216z" />
    <glyph glyph-name=".null" horiz-adv-x="0" 
 />
    <glyph glyph-name="nonmarkingreturn" horiz-adv-x="390" 
 />
    <glyph glyph-name="space" unicode=" " 
 />
    <glyph glyph-name="exclam" unicode="!" 
d="M185 1430v-1060h-185v1060h185zM185 185v-185h-185v185h185z" />
    <glyph glyph-name="quotedbl" unicode="&#x22;" horiz-adv-x="755" 
d="M370 1430l30 -435h125l30 435h-185zM0 1430l30 -435h125l30 435h-185z" />
    <glyph glyph-name="numbersign" unicode="#" horiz-adv-x="1893" 
d="M703 876l-90 -378h377l90 378h-377zM303 -5l89 349h-392l30 154h402l89 378h-401l30 154h412l100 395h180l-100 -395h378l102 400h180l-101 -400h392l-30 -154h-402l-89 -378h401l-30 -154h-412l-90 -349h-180l90 349h-378l-90 -349h-180z" />
    <glyph glyph-name="dollar" unicode="$" horiz-adv-x="1050" 
d="M30 240v160q175 -60 364 -60q251 0 251 150q0 140 -165 140h-150q-350 0 -350 310q0 260 350 300v190h175v-190q150 -10 275 -50v-160q-175 60 -343 60q-292 0 -292 -150q0 -140 185 -140h150q350 0 350 -310q0 -260 -325 -300v-190h-175v190q-175 10 -300 50z" />
    <glyph glyph-name="percent" unicode="%" horiz-adv-x="1422" 
d="M205 0h-205l1017 1430h205zM278 1035q144 0 144 147q0 144 -144 144q-148 0 -148 -144q0 -147 148 -147zM0 1180q0 260 278 260q274 0 274 -260q0 -259 -274 -259q-278 0 -278 259zM948 104q144 0 144 147q0 144 -144 144q-148 0 -148 -144q0 -147 148 -147zM670 249
q0 260 278 260q274 0 274 -260q0 -259 -274 -259q-278 0 -278 259z" />
    <glyph glyph-name="ampersand" unicode="&#x26;" horiz-adv-x="1275" 
d="M193 727q-193 -86 -193 -333q0 -397 495 -397q518 0 518 493v160h162v150h-182l-102 142h-63v-142h-388q-255 0 -255 250q0 230 338 230q172 0 347 -50v150q-175 50 -360 50q-510 0 -510 -385q0 -233 193 -318zM828 650v-158q0 -342 -342 -342q-301 0 -301 249
q0 251 257 251h386z" />
    <glyph glyph-name="quotesingle" unicode="'" horiz-adv-x="385" 
d="M0 1430l30 -435h125l30 435h-185z" />
    <glyph glyph-name="parenleft" unicode="(" horiz-adv-x="560" 
d="M200 1430q-200 -452 -200 -905t200 -905h185q-200 452 -200 905t200 905h-185z" />
    <glyph glyph-name="parenright" unicode=")" horiz-adv-x="560" 
d="M-1 1430q200 -452 200 -905t-200 -905h185q200 452 200 905t-200 905h-185z" />
    <glyph glyph-name="asterisk" unicode="*" horiz-adv-x="810" 
d="M227 1430h156l-30 -232l209 101l48 -147l-228 -43l159 -170l-123 -92l-113 205l-113 -204l-124 89l161 171l-230 42l48 150l211 -103z" />
    <glyph glyph-name="plus" unicode="+" horiz-adv-x="950" 
d="M0 600v-150h300v-300h150v300h300v150h-300v300h-150v-300h-300z" />
    <glyph glyph-name="comma" unicode="," horiz-adv-x="535" 
d="M150 185l-150 -435h185l150 435h-185z" />
    <glyph glyph-name="hyphen" unicode="-" horiz-adv-x="700" 
d="M500 600v-150h-500v150h500z" />
    <glyph glyph-name="hyphen" unicode="&#x2010;" horiz-adv-x="700" 
d="M500 600v-150h-500v150h500z" />
    <glyph glyph-name="period" unicode="." horiz-adv-x="385" 
d="M0 185v-185h185v185h-185z" />
    <glyph glyph-name="slash" unicode="/" horiz-adv-x="980" 
d="M205 0h-205l725 1430h205z" />
    <glyph glyph-name="zero" unicode="0" horiz-adv-x="1375" 
d="M618 140q412 0 412 579q0 571 -412 571q-423 0 -423 -571q0 -579 423 -579zM0 713q0 727 618 727q607 0 607 -727q0 -723 -607 -723q-586 0 -618 723z" />
    <glyph glyph-name="one" unicode="1" horiz-adv-x="585" 
d="M185 0v1430l-335 -100v-89h150v-1241h185z" />
    <glyph glyph-name="two" unicode="2" horiz-adv-x="1180" 
d="M0 0v150q795 547 795 870q0 270 -340 270q-220 0 -415 -110v160q195 100 415 100q525 0 525 -420q0 -370 -715 -870h715v-150h-980z" />
    <glyph glyph-name="three" unicode="3" horiz-adv-x="1115" 
d="M0 1380q200 60 400 60q515 0 515 -390q0 -236 -188 -325q188 -85 188 -325q0 -410 -515 -410q-200 0 -400 60v160q200 -70 400 -70q330 0 330 260q0 250 -252 250h-328v150h325q255 0 255 250q0 240 -330 240q-200 0 -400 -70v160z" />
    <glyph glyph-name="four" unicode="4" horiz-adv-x="1125" 
d="M828 0h-185v420h-642v150l395 860h184l-386 -860h449v528h185v-528l148 -76v-74h-148v-420z" />
    <glyph glyph-name="five" unicode="5" horiz-adv-x="1175" 
d="M50 1430h854v-150h-696l-34 -402q117 22 256 22q570 0 570 -440q0 -470 -550 -470q-230 0 -430 60v160q200 -70 430 -70q365 0 365 320q0 290 -385 290q-235 0 -430 -50z" />
    <glyph glyph-name="six" unicode="6" horiz-adv-x="1240" 
d="M0 530q0 466 508 943l126 -107q-262 -246 -374 -489q91 23 256 23q524 0 524 -430q0 -480 -553 -480q-487 0 -487 540zM496 140q363 0 363 330q0 280 -352 280q-194 0 -304 -28q-28 -110 -28 -176q0 -406 321 -406z" />
    <glyph glyph-name="seven" unicode="7" horiz-adv-x="1125" 
d="M0 1430h950v-150l-572 -1280h-211l592 1280h-759v150z" />
    <glyph glyph-name="eight" unicode="8" horiz-adv-x="1240" 
d="M0 424q0 223 212 321q-172 105 -172 333q0 366 480 366t480 -366q0 -228 -177 -333q217 -98 217 -321q0 -434 -520 -434t-520 434zM815 1058q0 232 -303 232q-287 0 -287 -232q0 -238 300 -238q290 0 290 238zM855 418q0 252 -343 252q-327 0 -327 -252q0 -278 340 -278
q330 0 330 278z" />
    <glyph glyph-name="nine" unicode="9" horiz-adv-x="1190" 
d="M1040 904q0 -466 -508 -943l-126 107q262 246 374 489q-133 -63 -296 -63q-484 0 -484 470q0 480 533 480q507 0 507 -540zM524 1294q-343 0 -343 -330q0 -310 312 -310q234 0 344 79q28 89 28 155q0 406 -341 406z" />
    <glyph glyph-name="colon" unicode=":" horiz-adv-x="385" 
d="M0 1050v-185h185v185h-185zM0 185v-185h185v185h-185z" />
    <glyph glyph-name="semicolon" unicode=";" horiz-adv-x="535" 
d="M150 1050v-185h185v185h-185zM150 185l-150 -435h185l150 435h-185z" />
    <glyph glyph-name="less" unicode="&#x3c;" horiz-adv-x="1100" 
d="M0 450v150l900 400v-150l-743 -329l743 -321v-150z" />
    <glyph glyph-name="equal" unicode="=" horiz-adv-x="950" 
d="M0 450v-150h750v150h-750zM0 750v-150h750v150h-750z" />
    <glyph glyph-name="greater" unicode="&#x3e;" horiz-adv-x="1100" 
d="M900 450v150l-900 400v-150l743 -329l-743 -321v-150z" />
    <glyph glyph-name="question" unicode="?" horiz-adv-x="1115" 
d="M150 185v-185h185v185h-185zM0 1380q210 50 400 50q515 0 515 -390t-497 -390h-83v-280h-185v430h265q315 0 315 240t-330 240q-190 0 -400 -50v150z" />
    <glyph glyph-name="at" unicode="@" horiz-adv-x="2150" 
d="M445 327q0 323 426 323q157 0 274 -20v99q0 171 -283 171q-162 0 -332 -50v150q170 50 332 50q468 0 468 -336v-626q0 -88 100 -88q205 0 205 540q0 750 -726 750q-754 0 -754 -750q0 -770 685 -770v-150q-870 0 -870 920q0 900 924 900q926 0 926 -900q0 -690 -427 -690
q-241 0 -241 224q-127 -74 -312 -74q-395 0 -395 327zM871 500q-241 0 -241 -170q0 -180 210 -180q192 0 305 82v248q-110 20 -274 20z" />
    <glyph glyph-name="A" unicode="A" horiz-adv-x="1472" 
d="M0 0l607 1430h205l610 -1430h-195l-190 450h-478l51 150h357l-264 638l-511 -1238h-192z" />
    <glyph glyph-name="B" unicode="B" horiz-adv-x="1310" 
d="M0 0v1430h610q408 0 408 -333q0 -244 -266 -349q284 -53 284 -325q0 -423 -447 -423h-589zM578 150q256 0 256 260q0 253 -343 253h-80v121q410 55 410 296q0 200 -228 200h-408v-1130h393z" />
    <glyph glyph-name="C" unicode="C" horiz-adv-x="1385" 
d="M1150 210q-185 -70 -380 -70q-585 0 -585 595q0 555 585 555q195 0 380 -70v160q-185 60 -400 60q-750 0 -750 -705q0 -745 750 -745q215 0 400 60v160z" />
    <glyph glyph-name="D" unicode="D" horiz-adv-x="1500" 
d="M540 150q525 0 525 604q0 526 -525 526h-355v-1130h355zM0 0v1430h580q670 0 670 -676q0 -754 -670 -754h-580z" />
    <glyph glyph-name="E" unicode="E" horiz-adv-x="1225" 
d="M0 1430v-1430h950v150h-765v500h715v150h-715v480h750v150h-935z" />
    <glyph glyph-name="F" unicode="F" horiz-adv-x="1210" 
d="M0 1430v-1430h185v650h715v150h-715v480h750v150h-935z" />
    <glyph glyph-name="G" unicode="G" horiz-adv-x="1385" 
d="M1150 650h-185v-486q-112 -24 -204 -24q-576 0 -576 595q0 555 585 555q195 0 380 -70v160q-185 60 -400 60q-750 0 -750 -705q0 -745 777 -745q200 0 373 66v594z" />
    <glyph glyph-name="H" unicode="H" horiz-adv-x="1535" 
d="M0 0v1430h185v-630h865v630h185v-1430h-185v650h-865v-650h-185z" />
    <glyph glyph-name="I" unicode="I" 
d="M0 1430v-1430h185v1430h-185z" />
    <glyph glyph-name="J" unicode="J" horiz-adv-x="660" 
d="M0 1430v-1018q0 -262 -300 -262v-150q485 0 485 412v1018h-185z" />
    <glyph glyph-name="K" unicode="K" horiz-adv-x="1450" 
d="M0 1430v-1430h185v1430h-185zM937 1430l-592 -620v-112l633 -698h277l-725 763l641 667h-234z" />
    <glyph glyph-name="L" unicode="L" horiz-adv-x="1183" 
d="M0 1430v-1430h933v150h-748v1280h-185z" />
    <glyph glyph-name="M" unicode="M" horiz-adv-x="1800" 
d="M0 0v1430h235l525 -1193l515 1193h225v-1430h-165v1153l-508 -1153h-146l-516 1153v-1153h-165z" />
    <glyph glyph-name="N" unicode="N" horiz-adv-x="1535" 
d="M0 0v1430h185l875 -1142v1142h175v-1430h-185l-875 1142v-1142h-175z" />
    <glyph glyph-name="O" unicode="O" horiz-adv-x="1625" 
d="M718 140q512 0 512 579q0 571 -512 571q-523 0 -523 -571q0 -579 523 -579zM0 713q0 727 718 727q707 0 707 -727q0 -723 -707 -723q-686 0 -718 723z" />
    <glyph glyph-name="P" unicode="P" horiz-adv-x="1243" 
d="M0 0v1430h610q408 0 408 -343q0 -387 -569 -479l-38 156q410 65 410 315q0 198 -228 198h-408v-1277h-185z" />
    <glyph glyph-name="Q" unicode="Q" horiz-adv-x="1625" 
d="M718 140q512 0 512 579q0 571 -512 571q-523 0 -523 -571q0 -579 523 -579zM0 713q0 727 718 727q707 0 707 -727q0 -598 -485 -706l232 -270l-144 -108l-310 361q-686 0 -718 723z" />
    <glyph glyph-name="R" unicode="R" horiz-adv-x="1330" 
d="M0 0v1430h610q408 0 408 -343q0 -279 -399 -413l491 -674h-244l-455 643v121q410 65 410 315q0 198 -228 198h-408v-1277h-185z" />
    <glyph glyph-name="S" unicode="S" horiz-adv-x="1310" 
d="M40 50v160q215 -70 496 -70q359 0 359 290q0 220 -212 220h-314q-399 0 -399 370q0 420 575 420q250 0 465 -60v-160q-215 70 -465 70q-390 0 -390 -270q0 -220 214 -220h314q397 0 397 -370q0 -440 -544 -440q-281 0 -496 60z" />
    <glyph glyph-name="T" unicode="T" horiz-adv-x="1085" 
d="M0 1430v-150h450v-1280h185v1280h450v150h-1085z" />
    <glyph glyph-name="U" unicode="U" horiz-adv-x="1490" 
d="M0 552v878h185v-878q0 -412 410 -412t410 412v878h185v-878q0 -562 -595 -562t-595 562z" />
    <glyph glyph-name="V" unicode="V" horiz-adv-x="1472" 
d="M1422 1430l-607 -1430h-205l-610 1430h195l524 -1238l511 1238h192z" />
    <glyph glyph-name="W" unicode="W" horiz-adv-x="1850" 
d="M0 1430h179l201 -1244l404 1244h185l433 -1244l227 1244h171l-269 -1430h-252l-404 1198l-391 -1198h-249z" />
    <glyph glyph-name="X" unicode="X" horiz-adv-x="1410" 
d="M0 1430h225l1125 -1430h-225zM225 0h-225l1125 1430h225z" />
    <glyph glyph-name="Y" unicode="Y" horiz-adv-x="1300" 
d="M0 1430h205l412 -747l418 747h215l-546 -930v-500h-185v500z" />
    <glyph glyph-name="Z" unicode="Z" horiz-adv-x="1250" 
d="M20 1430v-150h784l-804 -1130v-150h980v150h-757l777 1130v150h-980z" />
    <glyph glyph-name="bracketleft" unicode="[" horiz-adv-x="650" 
d="M0 1430v-1810h450v150h-265v1510h265v150h-450z" />
    <glyph glyph-name="backslash" unicode="\" horiz-adv-x="980" 
d="M0 1430h205l725 -1430h-205z" />
    <glyph glyph-name="bracketright" unicode="]" horiz-adv-x="650" 
d="M0 1430v-150h265v-1510h-265v-150h450v1810h-450z" />
    <glyph glyph-name="asciicircum" unicode="^" horiz-adv-x="1050" 
d="M400 1430h150l400 -730h-150l-329 603l-321 -603h-150z" />
    <glyph glyph-name="underscore" unicode="_" horiz-adv-x="1050" 
d="M0 0v-150h1000v150h-1000z" />
    <glyph glyph-name="grave" unicode="`" horiz-adv-x="400" 
d="M400 1355v-150l-400 150v150z" />
    <glyph glyph-name="a" unicode="a" horiz-adv-x="1135" 
d="M0 327q0 323 426 323q157 0 274 -20v99q0 171 -283 171q-162 0 -332 -50v150q170 50 332 50q468 0 468 -336v-714h-94l-74 74q-137 -74 -322 -74q-395 0 -395 327zM426 500q-241 0 -241 -170q0 -180 210 -180q192 0 305 82v248q-110 20 -274 20z" />
    <glyph glyph-name="b" unicode="b" horiz-adv-x="1188" 
d="M185 836q110 54 254 54q317 0 317 -337q0 -399 -350 -399q-130 0 -221 29v653zM0 43q189 -43 415 -43q523 0 523 546q0 504 -498 504q-136 0 -255 -50v430h-185v-1387z" />
    <glyph glyph-name="c" unicode="c" horiz-adv-x="1025" 
d="M850 180q-130 -30 -260 -30q-405 0 -405 395q0 355 405 355q130 0 260 -30v150q-130 30 -280 30q-570 0 -570 -505q0 -545 570 -545q150 0 280 30v150z" />
    <glyph glyph-name="d" unicode="d" horiz-adv-x="1190" 
d="M755 836q-112 54 -256 54q-317 0 -317 -337q0 -399 317 -399q144 0 256 39v643zM940 63q-191 -63 -471 -63q-469 0 -469 546q0 504 498 504q136 0 257 -50v430h185v-1367z" />
    <glyph glyph-name="e" unicode="e" horiz-adv-x="1132" 
d="M892 472h-707q0 -322 406 -322q139 0 278 30v-150q-139 -30 -338 -30q-531 0 -531 537q0 513 503 513q482 0 389 -578zM185 626h538q14 276 -250 276q-270 0 -288 -276z" />
    <glyph glyph-name="f" unicode="f" horiz-adv-x="721" 
d="M0 -5v1106q0 381 392 381q129 0 234 -40v-150q-99 40 -235 40q-206 0 -206 -173v-109h315v-150h-315v-901z" />
    <glyph glyph-name="g" unicode="g" horiz-adv-x="1187" 
d="M752 214q-109 -54 -253 -54q-317 0 -317 373q0 363 335 363q140 0 235 -24v-658zM937 1007q-199 43 -412 43q-525 0 -525 -519q0 -531 498 -531q136 0 254 50v-50q0 -230 -296 -230q-193 0 -346 50v-150q150 -50 344 -50q483 0 483 380v1007z" />
    <glyph glyph-name="h" unicode="h" horiz-adv-x="1205" 
d="M0 0v1430h185v-494q164 114 357 114q363 0 363 -391v-659h-185v662q0 234 -233 234q-159 0 -302 -133v-763h-185z" />
    <glyph glyph-name="i" unicode="i" 
d="M185 1430v-150h-185v150h185zM185 1050v-1050h-185v1050h185z" />
    <glyph glyph-name="j" unicode="j" 
d="M0 1430v-150h185v150h-185zM0 1050v-970q0 -238 -125 -373l155 -105q155 160 155 478v970h-185z" />
    <glyph glyph-name="k" unicode="k" horiz-adv-x="1181" 
d="M0 0v1430h185v-462q163 82 363 82q382 0 382 -303q0 -220 -300 -304l336 -443h-234l-334 445v83q347 31 347 220q0 152 -220 152q-173 0 -340 -94v-806h-185z" />
    <glyph glyph-name="l" unicode="l" 
d="M0 1430v-1430h185v1430h-185z" />
    <glyph glyph-name="m" unicode="m" horiz-adv-x="1805" 
d="M150 0v1050h125l31 -132q181 132 359 132q198 0 281 -144q201 144 377 144q332 0 332 -399v-651h-185v661q0 235 -198 235q-148 0 -277 -136v-760h-185v658q0 238 -196 238q-156 0 -279 -136v-760h-185z" />
    <glyph glyph-name="n" unicode="n" horiz-adv-x="1205" 
d="M0 0v1050h125l33 -134q191 134 384 134q363 0 363 -391v-659h-185v662q0 234 -233 234q-159 0 -302 -133v-763h-185z" />
    <glyph glyph-name="o" unicode="o" horiz-adv-x="1200" 
d="M500 150q315 0 315 379q0 371 -315 371t-315 -371q0 -379 315 -379zM0 525q0 525 500 525t500 -525q0 -524 -500 -524q-478 0 -500 524z" />
    <glyph glyph-name="p" unicode="p" horiz-adv-x="1187" 
d="M185 214q109 -54 243 -54q327 0 327 393q0 343 -325 343q-140 0 -245 -24v-658zM0 1007q209 43 432 43q505 0 505 -499q0 -551 -508 -551q-126 0 -244 50v-430h-185v1387z" />
    <glyph glyph-name="q" unicode="q" horiz-adv-x="1187" 
d="M752 214q-109 -54 -253 -54q-317 0 -317 373q0 363 335 363q140 0 235 -24v-658zM937 1007q-199 43 -412 43q-525 0 -525 -519q0 -531 498 -531q136 0 254 50v-430h185v1387z" />
    <glyph glyph-name="r" unicode="r" horiz-adv-x="675" 
d="M0 0v1050h125l33 -134q138 134 292 134v-154q-148 0 -265 -133v-763h-185z" />
    <glyph glyph-name="s" unicode="s" horiz-adv-x="1050" 
d="M30 50v160q175 -60 364 -60q251 0 251 150q0 140 -165 140h-150q-350 0 -350 310q0 300 457 300q168 0 343 -50v-160q-175 60 -343 60q-292 0 -292 -150q0 -140 185 -140h150q350 0 350 -310q0 -300 -436 -300q-189 0 -364 50z" />
    <glyph glyph-name="t" unicode="t" horiz-adv-x="650" 
d="M0 1220h116l40 -170h244v-150h-215v-603q0 -147 127 -147h88v-150h-136q-264 0 -264 283v937z" />
    <glyph glyph-name="u" unicode="u" horiz-adv-x="1205" 
d="M905 1050v-1050h-127l-32 134q-191 -134 -384 -134q-362 0 -362 391v659h185v-662q0 -234 232 -234q159 0 303 133v763h185z" />
    <glyph glyph-name="v" unicode="v" horiz-adv-x="1150" 
d="M0 1050h200l301 -823l299 823h200l-427 -1050h-172z" />
    <glyph glyph-name="w" unicode="w" horiz-adv-x="1570" 
d="M1 1050h187l196 -813l263 813h167l282 -813l178 813h196l-274 -1050h-189l-281 785l-266 -785h-193z" />
    <glyph glyph-name="x" unicode="x" horiz-adv-x="1120" 
d="M0 1050h215l785 -1050h-215zM215 0h-215l785 1050h215z" />
    <glyph glyph-name="y" unicode="y" horiz-adv-x="1150" 
d="M0 1050h201l297 -820l307 820h196l-436 -1081q-116 -286 -348 -357l-71 131q176 77 256 251z" />
    <glyph glyph-name="z" unicode="z" horiz-adv-x="990" 
d="M20 1050h770v-150l-567 -760h547v-140h-770v140l575 760h-555v150z" />
    <glyph glyph-name="braceleft" unicode="{" horiz-adv-x="675" 
d="M340 1430q-130 -176 -130 -478q0 -352 -210 -352v-150q210 0 210 -352q0 -302 130 -478h185q-130 176 -130 478q0 352 -210 427q210 75 210 427q0 302 130 478h-185z" />
    <glyph glyph-name="bar" unicode="|" 
d="M0 1430v-1810h185v1810h-185z" />
    <glyph glyph-name="braceright" unicode="}" horiz-adv-x="675" 
d="M0 1430q130 -176 130 -478q0 -352 210 -427q-210 -75 -210 -427q0 -302 -130 -478h185q130 176 130 478q0 352 210 352v150q-210 0 -210 352q0 302 -130 478h-185z" />
    <glyph glyph-name="asciitilde" unicode="~" horiz-adv-x="950" 
d="M365 600q260 -90 385 20v-150q-105 -110 -365 -20t-385 -20v150q105 110 365 20z" />
    <glyph glyph-name="Adieresis" unicode="&#xc4;" horiz-adv-x="1472" 
d="M0 0l607 1430h205l610 -1430h-195l-190 450h-478l51 150h357l-264 638l-511 -1238h-192zM984 1789v-150h-185v150h185zM614 1789v-150h-185v150h185z" />
    <glyph glyph-name="Aring" unicode="&#xc5;" horiz-adv-x="1472" 
d="M0 0l607 1430h205l610 -1430h-195l-190 450h-478l51 150h357l-264 638l-511 -1238h-192zM707 1431q144 0 144 147q0 144 -144 144q-148 0 -148 -144q0 -147 148 -147zM429 1576q0 260 278 260q274 0 274 -260q0 -259 -274 -259q-278 0 -278 259z" />
    <glyph glyph-name="Ccedilla" unicode="&#xc7;" horiz-adv-x="1385" 
d="M1150 210q-185 -70 -380 -70q-585 0 -585 595q0 555 585 555q195 0 380 -70v160q-185 60 -400 60q-750 0 -750 -705q0 -745 750 -745q215 0 400 60v160zM483 -372q108 -50 216 -50q241 0 241 173q0 172 -214 172l81 151h-135l-131 -259h183q83 0 83 -64q0 -65 -108 -65
t-216 50v-108z" />
    <glyph glyph-name="Eacute" unicode="&#xc9;" horiz-adv-x="1225" 
d="M686 1838v-150l-400 -150v150zM0 1430v-1430h950v150h-765v500h715v150h-715v480h750v150h-935z" />
    <glyph glyph-name="Ntilde" unicode="&#xd1;" horiz-adv-x="1535" 
d="M0 0v1430h185l875 -1142v1142h175v-1430h-185l-875 1142v-1142h-175zM605 1789q135 -60 260 20v-150q-105 -80 -240 -20t-260 -20v150q105 80 240 20z" />
    <glyph glyph-name="Odieresis" unicode="&#xd6;" horiz-adv-x="1625" 
d="M718 140q512 0 512 579q0 571 -512 571q-523 0 -523 -571q0 -579 523 -579zM0 713q0 727 718 727q707 0 707 -727q0 -723 -707 -723q-686 0 -718 723zM998 1789v-150h-185v150h185zM628 1789v-150h-185v150h185z" />
    <glyph glyph-name="Udieresis" unicode="&#xdc;" horiz-adv-x="1490" 
d="M0 552v878h185v-878q0 -412 410 -412t410 412v878h185v-878q0 -562 -595 -562t-595 562zM874 1789v-150h-185v150h185zM504 1789v-150h-185v150h185z" />
    <glyph glyph-name="aacute" unicode="&#xe1;" horiz-adv-x="1135" 
d="M0 327q0 323 426 323q157 0 274 -20v99q0 171 -283 171q-162 0 -332 -50v150q170 50 332 50q468 0 468 -336v-714h-94l-74 74q-137 -74 -322 -74q-395 0 -395 327zM426 500q-241 0 -241 -170q0 -180 210 -180q192 0 305 82v248q-110 20 -274 20zM658 1505v-150l-400 -150
v150z" />
    <glyph glyph-name="agrave" unicode="&#xe0;" horiz-adv-x="1135" 
d="M0 327q0 323 426 323q157 0 274 -20v99q0 171 -283 171q-162 0 -332 -50v150q170 50 332 50q468 0 468 -336v-714h-94l-74 74q-137 -74 -322 -74q-395 0 -395 327zM426 500q-241 0 -241 -170q0 -180 210 -180q192 0 305 82v248q-110 20 -274 20zM658 1355v-150l-400 150
v150z" />
    <glyph glyph-name="acircumflex" unicode="&#xe2;" horiz-adv-x="1135" 
d="M0 327q0 323 426 323q157 0 274 -20v99q0 171 -283 171q-162 0 -332 -50v150q170 50 332 50q468 0 468 -336v-714h-94l-74 74q-137 -74 -322 -74q-395 0 -395 327zM426 500q-241 0 -241 -170q0 -180 210 -180q192 0 305 82v248q-110 20 -274 20zM215 1280h150l100 160
l100 -160h150l-175 260h-150z" />
    <glyph glyph-name="adieresis" unicode="&#xe4;" horiz-adv-x="1135" 
d="M0 327q0 323 426 323q157 0 274 -20v99q0 171 -283 171q-162 0 -332 -50v150q170 50 332 50q468 0 468 -336v-714h-94l-74 74q-137 -74 -322 -74q-395 0 -395 327zM426 500q-241 0 -241 -170q0 -180 210 -180q192 0 305 82v248q-110 20 -274 20zM746 1430v-150h-185v150
h185zM376 1430v-150h-185v150h185z" />
    <glyph glyph-name="atilde" unicode="&#xe3;" horiz-adv-x="1135" 
d="M0 327q0 323 426 323q157 0 274 -20v99q0 171 -283 171q-162 0 -332 -50v150q170 50 332 50q468 0 468 -336v-714h-94l-74 74q-137 -74 -322 -74q-395 0 -395 327zM426 500q-241 0 -241 -170q0 -180 210 -180q192 0 305 82v248q-110 20 -274 20zM443 1429q135 -60 260 20
v-150q-105 -80 -240 -20t-260 -20v150q105 80 240 20z" />
    <glyph glyph-name="aring" unicode="&#xe5;" horiz-adv-x="1135" 
d="M0 327q0 323 426 323q157 0 274 -20v99q0 171 -283 171q-162 0 -332 -50v150q170 50 332 50q468 0 468 -336v-714h-94l-74 74q-137 -74 -322 -74q-395 0 -395 327zM426 500q-241 0 -241 -170q0 -180 210 -180q192 0 305 82v248q-110 20 -274 20zM465 1394q144 0 144 147
q0 144 -144 144q-148 0 -148 -144q0 -147 148 -147zM187 1539q0 260 278 260q274 0 274 -260q0 -259 -274 -259q-278 0 -278 259z" />
    <glyph glyph-name="ccedilla" unicode="&#xe7;" horiz-adv-x="1025" 
d="M850 180q-130 -30 -260 -30q-405 0 -405 395q0 355 405 355q130 0 260 -30v150q-130 30 -280 30q-570 0 -570 -505q0 -545 570 -545q150 0 280 30v150zM298 -372q108 -50 216 -50q241 0 241 173q0 172 -214 172l81 151h-135l-131 -259h183q83 0 83 -64q0 -65 -108 -65
t-216 50v-108z" />
    <glyph glyph-name="eacute" unicode="&#xe9;" horiz-adv-x="1132" 
d="M892 472h-707q0 -322 406 -322q139 0 278 30v-150q-139 -30 -338 -30q-531 0 -531 537q0 513 503 513q482 0 389 -578zM185 626h538q14 276 -250 276q-270 0 -288 -276zM668 1505v-150l-400 -150v150z" />
    <glyph glyph-name="egrave" unicode="&#xe8;" horiz-adv-x="1132" 
d="M892 472h-707q0 -322 406 -322q139 0 278 30v-150q-139 -30 -338 -30q-531 0 -531 537q0 513 503 513q482 0 389 -578zM185 626h538q14 276 -250 276q-270 0 -288 -276zM668 1355v-150l-400 150v150z" />
    <glyph glyph-name="ecircumflex" unicode="&#xea;" horiz-adv-x="1132" 
d="M892 472h-707q0 -322 406 -322q139 0 278 30v-150q-139 -30 -338 -30q-531 0 -531 537q0 513 503 513q482 0 389 -578zM185 626h538q14 276 -250 276q-270 0 -288 -276zM218 1280h150l100 160l100 -160h150l-175 260h-150z" />
    <glyph glyph-name="edieresis" unicode="&#xeb;" horiz-adv-x="1132" 
d="M892 472h-707q0 -322 406 -322q139 0 278 30v-150q-139 -30 -338 -30q-531 0 -531 537q0 513 503 513q482 0 389 -578zM185 626h538q14 276 -250 276q-270 0 -288 -276zM746 1430v-150h-185v150h185zM376 1430v-150h-185v150h185z" />
    <glyph glyph-name="iacute" unicode="&#xed;" 
d="M185 1050v-1050h-185v1050h185zM295 1505v-150l-400 -150v150z" />
    <glyph glyph-name="igrave" unicode="&#xec;" 
d="M185 1050v-1050h-185v1050h185zM295 1355v-150l-400 150v150z" />
    <glyph glyph-name="icircumflex" unicode="&#xee;" 
d="M185 1050v-1050h-185v1050h185zM17 1540h150l175 -260h-150l-100 160l-100 -160h-150z" />
    <glyph glyph-name="idieresis" unicode="&#xef;" 
d="M185 1050v-1050h-185v1050h185zM370 1430v-150h-185v150h185zM0 1430v-150h-185v150h185z" />
    <glyph glyph-name="ntilde" unicode="&#xf1;" horiz-adv-x="1205" 
d="M0 0v1050h125l33 -134q191 134 384 134q363 0 363 -391v-659h-185v662q0 234 -233 234q-159 0 -302 -133v-763h-185zM443 1429q135 -60 260 20v-150q-105 -80 -240 -20t-260 -20v150q105 80 240 20z" />
    <glyph glyph-name="oacute" unicode="&#xf3;" horiz-adv-x="1200" 
d="M500 150q315 0 315 379q0 371 -315 371t-315 -371q0 -379 315 -379zM0 525q0 525 500 525t500 -525q0 -524 -500 -524q-478 0 -500 524zM692 1505v-150l-400 -150v150z" />
    <glyph glyph-name="ograve" unicode="&#xf2;" horiz-adv-x="1200" 
d="M500 150q315 0 315 379q0 371 -315 371t-315 -371q0 -379 315 -379zM0 525q0 525 500 525t500 -525q0 -524 -500 -524q-478 0 -500 524zM684 1355v-150l-400 150v150z" />
    <glyph glyph-name="ocircumflex" unicode="&#xf4;" horiz-adv-x="1200" 
d="M500 150q315 0 315 379q0 371 -315 371t-315 -371q0 -379 315 -379zM0 525q0 525 500 525t500 -525q0 -524 -500 -524q-478 0 -500 524zM238 1280h150l100 160l100 -160h150l-175 260h-150z" />
    <glyph glyph-name="odieresis" unicode="&#xf6;" horiz-adv-x="1200" 
d="M500 150q315 0 315 379q0 371 -315 371t-315 -371q0 -379 315 -379zM0 525q0 525 500 525t500 -525q0 -524 -500 -524q-478 0 -500 524zM776 1430v-150h-185v150h185zM406 1430v-150h-185v150h185z" />
    <glyph glyph-name="otilde" unicode="&#xf5;" horiz-adv-x="1200" 
d="M500 150q315 0 315 379q0 371 -315 371t-315 -371q0 -379 315 -379zM0 525q0 525 500 525t500 -525q0 -524 -500 -524q-478 0 -500 524zM486 1429q135 -60 260 20v-150q-105 -80 -240 -20t-260 -20v150q105 80 240 20z" />
    <glyph glyph-name="uacute" unicode="&#xfa;" horiz-adv-x="1205" 
d="M905 1050v-1050h-127l-32 134q-191 -134 -384 -134q-362 0 -362 391v659h185v-662q0 -234 232 -234q159 0 303 133v763h185zM658 1505v-150l-400 -150v150z" />
    <glyph glyph-name="ugrave" unicode="&#xf9;" horiz-adv-x="1205" 
d="M905 1050v-1050h-127l-32 134q-191 -134 -384 -134q-362 0 -362 391v659h185v-662q0 -234 232 -234q159 0 303 133v763h185zM658 1355v-150l-400 150v150z" />
    <glyph glyph-name="ucircumflex" unicode="&#xfb;" horiz-adv-x="1205" 
d="M905 1050v-1050h-127l-32 134q-191 -134 -384 -134q-362 0 -362 391v659h185v-662q0 -234 232 -234q159 0 303 133v763h185zM202 1280h150l100 160l100 -160h150l-175 260h-150z" />
    <glyph glyph-name="udieresis" unicode="&#xfc;" horiz-adv-x="1205" 
d="M905 1050v-1050h-127l-32 134q-191 -134 -384 -134q-362 0 -362 391v659h185v-662q0 -234 232 -234q159 0 303 133v763h185zM736 1430v-150h-185v150h185zM366 1430v-150h-185v150h185z" />
    <glyph glyph-name="dagger" unicode="&#x2020;" horiz-adv-x="451" 
 />
    <glyph glyph-name="degree" unicode="&#xb0;" horiz-adv-x="752" 
d="M278 1025q144 0 144 147q0 144 -144 144q-148 0 -148 -144q0 -147 148 -147zM0 1170q0 260 278 260q274 0 274 -260q0 -259 -274 -259q-278 0 -278 259z" />
    <glyph glyph-name="cent" unicode="&#xa2;" horiz-adv-x="636" 
 />
    <glyph glyph-name="sterling" unicode="&#xa3;" horiz-adv-x="636" 
 />
    <glyph glyph-name="section" unicode="&#xa7;" horiz-adv-x="1050" 
d="M50 40v160q175 -60 364 -60q251 0 251 150q0 130 -195 130h-110q-360 0 -360 300q0 138 122 196q-122 80 -122 224q0 300 457 300q168 0 343 -50v-160q-175 60 -343 60q-292 0 -292 -150q0 -130 195 -130h110q380 0 380 -297q0 -130 -120 -202q120 -64 120 -221
q0 -300 -436 -300q-189 0 -364 50zM360 568h110q195 0 195 136q0 157 -195 157h-110q-195 0 -195 -144q0 -149 195 -149z" />
    <glyph glyph-name="bullet" unicode="&#x2022;" horiz-adv-x="630" 
d="M0 725q0 215 215 215t215 -215t-215 -215t-215 215z" />
    <glyph glyph-name="paragraph" unicode="&#xb6;" horiz-adv-x="953" 
d="M443 -434v972q-443 0 -443 448q0 444 443 444h510v-90h-150v-1774h-100v1774h-160v-1774h-100z" />
    <glyph glyph-name="germandbls" unicode="&#xdf;" horiz-adv-x="1211" 
d="M0 0v959q0 468 464 468q430 0 430 -397v-85q-304 -103 -304 -248q0 -71 185.5 -137.5t185.5 -257.5q0 -302 -424 -302h-132v150h134q227 0 227 152q0 81 -175.5 147.5t-175.5 244.5q0 208 288 336q0 247 -246 247q-272 0 -272 -321v-956h-185z" />
    <glyph glyph-name="registered" unicode="&#xae;" horiz-adv-x="1163" 
d="M254 756v536h229q153 0 153 -128q0 -105 -150 -155l184 -253h-91l-171 241v45q154 25 154 119q0 74 -86 74h-153v-479h-69zM430 664q360 0 360 361q0 369 -360 369q-357 0 -357 -369q0 -361 357 -361zM0 1023q0 427 430 427q433 0 433 -427q0 -415 -433 -415
q-418 0 -430 415z" />
    <glyph glyph-name="copyright" unicode="&#xa9;" horiz-adv-x="1163" 
d="M430 664q360 0 360 361q0 369 -360 369q-357 0 -357 -369q0 -361 357 -361zM0 1023q0 427 430 427q433 0 433 -427q0 -415 -433 -415q-418 0 -430 415zM615 830q-71 -27 -146 -27q-226 0 -226 229q0 213 226 213q75 0 146 -27v62q-71 23 -154 23q-289 0 -289 -271
q0 -287 289 -287q83 0 154 23v62z" />
    <glyph glyph-name="trademark" unicode="&#x2122;" horiz-adv-x="1606" 
d="M511 1430v-71h-212v-602h-87v602h-212v71h511zM600 757v673h110l248 -561l242 561h106v-673h-78v543l-239 -543h-69l-243 543v-543h-77z" />
    <glyph glyph-name="acute" unicode="&#xb4;" horiz-adv-x="400" 
d="M400 1505v-150l-400 -150v150z" />
    <glyph glyph-name="dieresis" unicode="&#xa8;" horiz-adv-x="555" 
d="M555 1430v-150h-185v150h185zM185 1430v-150h-185v150h185z" />
    <glyph glyph-name="AE" unicode="&#xc6;" horiz-adv-x="1875" 
d="M0 0l607 1430h1098v-150h-838l210 -480h593v-150h-524l226 -500h353v-150h-498l-524 1238l-266 -638h350l58 -150h-459l-194 -450h-192z" />
    <glyph glyph-name="Oslash" unicode="&#xd8;" horiz-adv-x="696" 
 />
    <glyph glyph-name="plusminus" unicode="&#xb1;" horiz-adv-x="636" 
 />
    <glyph glyph-name="yen" unicode="&#xa5;" horiz-adv-x="636" 
 />
    <glyph glyph-name="mu" unicode="&#xb5;" horiz-adv-x="420" 
 />
    <glyph glyph-name="mu" unicode="&#x3bc;" horiz-adv-x="420" 
 />
    <glyph glyph-name="ordfeminine" unicode="&#xaa;" horiz-adv-x="402" 
 />
    <glyph glyph-name="ordmasculine" unicode="&#xba;" horiz-adv-x="402" 
 />
    <glyph glyph-name="ae" unicode="&#xe6;" horiz-adv-x="1835" 
d="M426 500q-241 0 -241 -170q0 -180 210 -180q192 0 305 82v248q-110 20 -274 20zM886 626h538q14 274 -250 274q-270 0 -288 -274zM89 852v145q168 53 334 53q299 0 396 -146q117 146 392 146q478 0 384 -578h-707q0 -322 400 -322q148 0 285 29v-149q-146 -30 -341 -30
q-255 0 -398 132q-213 -132 -438 -132q-396 0 -396 329q0 321 427 321q154 0 276 -22v103q0 169 -282 169q-170 0 -332 -48z" />
    <glyph glyph-name="oslash" unicode="&#xf8;" horiz-adv-x="366" 
 />
    <glyph glyph-name="questiondown" unicode="&#xbf;" horiz-adv-x="567" 
 />
    <glyph glyph-name="exclamdown" unicode="&#xa1;" horiz-adv-x="309" 
 />
    <glyph glyph-name="logicalnot" unicode="&#xac;" horiz-adv-x="1395" 
 />
    <glyph glyph-name="florin" unicode="&#x192;" horiz-adv-x="576" 
 />
    <glyph glyph-name="guillemotleft" unicode="&#xab;" horiz-adv-x="540" 
 />
    <glyph glyph-name="guillemotright" unicode="&#xbb;" horiz-adv-x="540" 
 />
    <glyph glyph-name="ellipsis" unicode="&#x2026;" horiz-adv-x="792" 
 />
    <glyph glyph-name="nonbreakingspace" unicode="&#xa0;" horiz-adv-x="498" 
 />
    <glyph glyph-name="Agrave" unicode="&#xc0;" horiz-adv-x="1472" 
d="M0 0l607 1430h205l610 -1430h-195l-190 450h-478l51 150h357l-264 638l-511 -1238h-192zM900 1688v-150l-400 150v150z" />
    <glyph glyph-name="Atilde" unicode="&#xc3;" horiz-adv-x="1472" 
d="M0 0l607 1430h205l610 -1430h-195l-190 450h-478l51 150h357l-264 638l-511 -1238h-192zM703 1789q135 -60 260 20v-150q-105 -80 -240 -20t-260 -20v150q105 80 240 20z" />
    <glyph glyph-name="Otilde" unicode="&#xd5;" horiz-adv-x="1625" 
d="M718 140q512 0 512 579q0 571 -512 571q-523 0 -523 -571q0 -579 523 -579zM0 713q0 727 718 727q707 0 707 -727q0 -723 -707 -723q-686 0 -718 723zM703 1789q135 -60 260 20v-150q-105 -80 -240 -20t-260 -20v150q105 80 240 20z" />
    <glyph glyph-name="OE" unicode="&#x152;" horiz-adv-x="2215" 
d="M718 150q512 0 512 569q0 561 -512 561q-523 0 -523 -561q0 -569 523 -569zM0 713q0 717 718 717h1257v-150h-775q195 -148 225 -480h515v-150h-515q-30 -357 -225 -500h790v-150h-1272q-686 0 -718 713z" />
    <glyph glyph-name="oe" unicode="&#x153;" horiz-adv-x="1943" 
d="M500 150q315 0 315 379q0 371 -315 371t-315 -371q0 -379 315 -379zM1000 626h538q14 276 -250 276q-270 0 -288 -276zM4 522q0 528 500 528q284 0 405 -169q118 169 407 169q487 0 390 -578h-703q0 -322 402 -322q147 0 279 28v-146q-137 -32 -333 -32q-312 0 -441 176
q-115 -176 -406 -176q-479 0 -500 522z" />
    <glyph glyph-name="endash" unicode="&#x2013;" horiz-adv-x="684" 
 />
    <glyph glyph-name="emdash" unicode="&#x2014;" horiz-adv-x="894" 
 />
    <glyph glyph-name="quotedblleft" unicode="&#x201c;" horiz-adv-x="905" 
d="M520 1430l-150 -435h185l150 435h-185zM150 1430l-150 -435h185l150 435h-185z" />
    <glyph glyph-name="quotedblright" unicode="&#x201d;" horiz-adv-x="905" 
d="M-1 1430l150 -435h185l-150 435h-185zM369 1430l150 -435h185l-150 435h-185z" />
    <glyph glyph-name="quoteleft" unicode="&#x2018;" horiz-adv-x="535" 
d="M-1 1430l150 -435h185l-150 435h-185z" />
    <glyph glyph-name="quoteright" unicode="&#x2019;" horiz-adv-x="535" 
d="M150 1430l-150 -435h185l150 435h-185z" />
    <glyph glyph-name="divide" unicode="&#xf7;" horiz-adv-x="985" 
d="M0 600v-150h785v150h-785zM485 300v-150h-185v150h185zM485 900v-150h-185v150h185z" />
    <glyph glyph-name="ydieresis" unicode="&#xff;" horiz-adv-x="393" 
 />
    <glyph glyph-name="Ydieresis" unicode="&#x178;" horiz-adv-x="526" 
 />
    <glyph glyph-name="currency" unicode="&#xa4;" horiz-adv-x="420" 
 />
    <glyph glyph-name="guilsinglleft" unicode="&#x2039;" horiz-adv-x="321" 
 />
    <glyph glyph-name="guilsinglright" unicode="&#x203a;" horiz-adv-x="321" 
 />
    <glyph glyph-name="daggerdbl" unicode="&#x2021;" horiz-adv-x="336" 
 />
    <glyph glyph-name="periodcentered" unicode="&#xb7;" horiz-adv-x="450" 
d="M0 525q0 125 125 125t125 -125t-125 -125t-125 125z" />
    <glyph glyph-name="periodcentered" unicode="&#x2219;" horiz-adv-x="450" 
d="M0 525q0 125 125 125t125 -125t-125 -125t-125 125z" />
    <glyph glyph-name="quotesinglbase" unicode="&#x201a;" horiz-adv-x="234" 
 />
    <glyph glyph-name="quotedblbase" unicode="&#x201e;" horiz-adv-x="905" 
d="M520 185l-150 -435h185l150 435h-185zM150 185l-150 -435h185l150 435h-185z" />
    <glyph glyph-name="perthousand" unicode="&#x2030;" horiz-adv-x="2107" 
d="M205 0h-205l1017 1430h205zM278 1035q144 0 144 147q0 144 -144 144q-148 0 -148 -144q0 -147 148 -147zM0 1180q0 260 278 260q274 0 274 -260q0 -259 -274 -259q-278 0 -278 259zM1633 104q144 0 144 147q0 144 -144 144q-148 0 -148 -144q0 -147 148 -147zM1355 249
q0 260 278 260q274 0 274 -260q0 -259 -274 -259q-278 0 -278 259zM948 104q144 0 144 147q0 144 -144 144q-148 0 -148 -144q0 -147 148 -147zM670 249q0 260 278 260q274 0 274 -260q0 -259 -274 -259q-278 0 -278 259z" />
    <glyph glyph-name="Acircumflex" unicode="&#xc2;" horiz-adv-x="1472" 
d="M0 0l607 1430h205l610 -1430h-195l-190 450h-478l51 150h357l-264 638l-511 -1238h-192zM632 1834h150l175 -260h-150l-100 160l-100 -160h-150z" />
    <glyph glyph-name="Ecircumflex" unicode="&#xca;" horiz-adv-x="1225" 
d="M404 1834h150l175 -260h-150l-100 160l-100 -160h-150zM0 1430v-1430h950v150h-765v500h715v150h-715v480h750v150h-935z" />
    <glyph glyph-name="Aacute" unicode="&#xc1;" horiz-adv-x="1472" 
d="M0 0l607 1430h205l610 -1430h-195l-190 450h-478l51 150h357l-264 638l-511 -1238h-192zM900 1838v-150l-400 -150v150z" />
    <glyph glyph-name="Edieresis" unicode="&#xcb;" horiz-adv-x="1225" 
d="M741 1789v-150h-185v150h185zM371 1789v-150h-185v150h185zM0 1430v-1430h950v150h-765v500h715v150h-715v480h750v150h-935z" />
    <glyph glyph-name="Egrave" unicode="&#xc8;" horiz-adv-x="1225" 
d="M686 1688v-150l-400 150v150zM0 1430v-1430h950v150h-765v500h715v150h-715v480h750v150h-935z" />
    <glyph glyph-name="Iacute" unicode="&#xcd;" 
d="M0 1430v-1430h185v1430h-185zM295 1838v-150l-400 -150v150z" />
    <glyph glyph-name="Icircumflex" unicode="&#xce;" 
d="M0 1430v-1430h185v1430h-185zM17 1834h150l175 -260h-150l-100 160l-100 -160h-150z" />
    <glyph glyph-name="Idieresis" unicode="&#xcf;" 
d="M0 1430v-1430h185v1430h-185zM370 1789v-150h-185v150h185zM0 1789v-150h-185v150h185z" />
    <glyph glyph-name="Igrave" unicode="&#xcc;" 
d="M0 1430v-1430h185v1430h-185zM295 1688v-150l-400 150v150z" />
    <glyph glyph-name="Oacute" unicode="&#xd3;" horiz-adv-x="1625" 
d="M718 140q512 0 512 579q0 571 -512 571q-523 0 -523 -571q0 -579 523 -579zM0 713q0 727 718 727q707 0 707 -727q0 -723 -707 -723q-686 0 -718 723zM890 1838v-150l-400 -150v150z" />
    <glyph glyph-name="Ocircumflex" unicode="&#xd4;" horiz-adv-x="1625" 
d="M718 140q512 0 512 579q0 571 -512 571q-523 0 -523 -571q0 -579 523 -579zM0 713q0 727 718 727q707 0 707 -727q0 -723 -707 -723q-686 0 -718 723zM634 1834h150l175 -260h-150l-100 160l-100 -160h-150z" />
    <glyph glyph-name="Ograve" unicode="&#xd2;" horiz-adv-x="1625" 
d="M718 140q512 0 512 579q0 571 -512 571q-523 0 -523 -571q0 -579 523 -579zM0 713q0 727 718 727q707 0 707 -727q0 -723 -707 -723q-686 0 -718 723zM890 1688v-150l-400 150v150z" />
    <glyph glyph-name="Uacute" unicode="&#xda;" horiz-adv-x="1490" 
d="M0 552v878h185v-878q0 -412 410 -412t410 412v878h185v-878q0 -562 -595 -562t-595 562zM798 1838v-150l-400 -150v150z" />
    <glyph glyph-name="Ucircumflex" unicode="&#xdb;" horiz-adv-x="1490" 
d="M0 552v878h185v-878q0 -412 410 -412t410 412v878h185v-878q0 -562 -595 -562t-595 562zM503 1834h150l175 -260h-150l-100 160l-100 -160h-150z" />
    <glyph glyph-name="Ugrave" unicode="&#xd9;" horiz-adv-x="1490" 
d="M0 552v878h185v-878q0 -412 410 -412t410 412v878h185v-878q0 -562 -595 -562t-595 562zM798 1688v-150l-400 150v150z" />
    <glyph glyph-name="circumflex" unicode="&#x2c6;" horiz-adv-x="550" 
d="M0 1278h150l100 160l100 -160h150l-175 260h-150z" />
    <glyph glyph-name="tilde" unicode="&#x2dc;" horiz-adv-x="700" 
d="M240 600q135 -60 260 20v-150q-105 -80 -240 -20t-260 -20v150q105 80 240 20z" />
    <glyph glyph-name="macron" unicode="&#xaf;" horiz-adv-x="360" 
 />
    <glyph glyph-name="macron" unicode="&#x2c9;" horiz-adv-x="360" 
 />
    <glyph glyph-name="cedilla" unicode="&#xb8;" horiz-adv-x="457" 
d="M0 -372q108 -50 216 -50q241 0 241 173q0 172 -214 172l81 151h-135l-131 -259h183q83 0 83 -64q0 -65 -108 -65t-216 50v-108z" />
    <glyph glyph-name="Scaron" unicode="&#x160;" horiz-adv-x="621" 
 />
    <glyph glyph-name="scaron" unicode="&#x161;" horiz-adv-x="342" 
 />
    <glyph glyph-name="brokenbar" unicode="&#xa6;" horiz-adv-x="201" 
 />
    <glyph glyph-name="Eth" unicode="&#xd0;" horiz-adv-x="663" 
 />
    <glyph glyph-name="eth" unicode="&#xf0;" horiz-adv-x="483" 
 />
    <glyph glyph-name="Yacute" unicode="&#xdd;" horiz-adv-x="526" 
 />
    <glyph glyph-name="yacute" unicode="&#xfd;" horiz-adv-x="393" 
 />
    <glyph glyph-name="Thorn" unicode="&#xde;" horiz-adv-x="576" 
 />
    <glyph glyph-name="thorn" unicode="&#xfe;" horiz-adv-x="348" 
 />
    <glyph glyph-name="minus" unicode="&#xad;" horiz-adv-x="636" 
 />
    <glyph glyph-name="minus" unicode="&#x2212;" horiz-adv-x="636" 
 />
    <glyph glyph-name="multiply" unicode="&#xd7;" horiz-adv-x="636" 
 />
    <glyph glyph-name="onesuperior" unicode="&#xb9;" horiz-adv-x="300" 
 />
    <glyph glyph-name="twosuperior" unicode="&#xb2;" horiz-adv-x="300" 
 />
    <glyph glyph-name="threesuperior" unicode="&#xb3;" horiz-adv-x="300" 
 />
    <glyph glyph-name="onehalf" unicode="&#xbd;" horiz-adv-x="786" 
 />
    <glyph glyph-name="onequarter" unicode="&#xbc;" horiz-adv-x="786" 
 />
    <glyph glyph-name="threequarters" unicode="&#xbe;" horiz-adv-x="786" 
 />
    <glyph glyph-name="Lslash" unicode="&#x141;" horiz-adv-x="570" 
 />
    <glyph glyph-name="lslash" unicode="&#x142;" horiz-adv-x="213" 
 />
    <glyph glyph-name="Zcaron" unicode="&#x17d;" horiz-adv-x="690" 
 />
    <glyph glyph-name="zcaron" unicode="&#x17e;" horiz-adv-x="462" 
 />
    <glyph glyph-name="notequal" unicode="&#x2260;" horiz-adv-x="636" 
 />
    <glyph glyph-name="infinity" unicode="&#x221e;" horiz-adv-x="669" 
 />
    <glyph glyph-name="lessequal" unicode="&#x2264;" horiz-adv-x="342" 
 />
    <glyph glyph-name="greaterequal" unicode="&#x2265;" horiz-adv-x="342" 
 />
    <glyph glyph-name="partialdiff" unicode="&#x2202;" horiz-adv-x="483" 
 />
    <glyph glyph-name="summation" unicode="&#x2211;" horiz-adv-x="1398" 
 />
    <glyph glyph-name="product" unicode="&#x220f;" horiz-adv-x="798" 
 />
    <glyph glyph-name="pi" unicode="&#x3c0;" horiz-adv-x="798" 
 />
    <glyph glyph-name="integral" unicode="&#x222b;" horiz-adv-x="1398" 
 />
    <glyph glyph-name="Omega" unicode="&#x3a9;" horiz-adv-x="1443" 
 />
    <glyph glyph-name="Omega" unicode="&#x2126;" horiz-adv-x="1443" 
 />
    <glyph glyph-name="radical" unicode="&#x221a;" horiz-adv-x="819" 
 />
    <glyph glyph-name="approxequal" unicode="&#x2248;" horiz-adv-x="636" 
 />
    <glyph glyph-name="approxequal" unicode="&#x22f2;" horiz-adv-x="636" 
 />
    <glyph glyph-name="Delta" unicode="&#x394;" horiz-adv-x="366" 
 />
    <glyph glyph-name="Delta" unicode="&#x2206;" horiz-adv-x="366" 
 />
    <glyph glyph-name="lozenge" unicode="&#x25ca;" horiz-adv-x="243" 
 />
    <glyph glyph-name="fraction" unicode="&#x2044;" horiz-adv-x="234" 
 />
    <glyph glyph-name="fi" unicode="&#xf001;" horiz-adv-x="525" 
 />
    <glyph glyph-name="fl" unicode="&#xf002;" horiz-adv-x="480" 
 />
    <glyph glyph-name="apple" unicode="&#xf000;" horiz-adv-x="588" 
 />
    <glyph glyph-name="dotlessi" unicode="&#x131;" horiz-adv-x="234" 
 />
    <glyph glyph-name="breve" unicode="&#x2d8;" horiz-adv-x="360" 
 />
    <glyph glyph-name="dotaccent" unicode="&#x2d9;" horiz-adv-x="183" 
 />
    <glyph glyph-name="ring" unicode="&#x2da;" horiz-adv-x="552" 
d="M278 1431q144 0 144 147q0 144 -144 144q-148 0 -148 -144q0 -147 148 -147zM0 1576q0 260 278 260q274 0 274 -260q0 -259 -274 -259q-278 0 -278 259z" />
    <glyph glyph-name="hungarumlaut" unicode="&#x2dd;" horiz-adv-x="468" 
 />
    <glyph glyph-name="ogonek" unicode="&#x2db;" horiz-adv-x="270" 
 />
    <glyph glyph-name="caron" unicode="&#x2c7;" horiz-adv-x="360" 
 />
    <glyph glyph-name="Euro" unicode="&#x20ac;" horiz-adv-x="1385" 
d="M1150 210q-185 -70 -380 -70q-508 0 -585 392h773v150h-793v110h793v150h-773q87 348 585 348q195 0 380 -70v160q-185 60 -400 60q-750 0 -750 -705q0 -745 750 -745q215 0 400 60v160z" />
    </font>
</defs>
</svg>
